<?xml version="1.0" encoding="UTF-8"?>
<svg width="752pt" height="752pt" version="1.1" viewBox="0 0 752 752" xmlns="http://www.w3.org/2000/svg">
 <g>
  <path d="m536.07 263.76c0-3.7891-1.4219-7.5781-4.2617-10.418l-80.035-85.246c-2.8398-3.3164-7.1055-4.7344-11.367-4.7344h-198.9c-13.734 0-25.102 11.367-25.102 25.102v375.55c0 13.734 11.367 25.102 25.102 25.102h269.47c13.734 0 25.102-11.367 25.102-25.102zm-25.098 306.41h-269.47c-3.3164 0-6.1562-2.8398-6.1562-6.1562v-375.55c0-3.3164 2.8398-6.1562 6.1562-6.1562h195.59v56.355c0 15.156 12.312 27.469 27.469 27.469h52.566v297.88c0 3.3125-2.8438 6.1523-6.1562 6.1523z"/>
  <path d="m300.23 427.62h-24.152c-3.7891 0-5.6836 1.8945-5.6836 5.6836v60.145c0 3.7891 1.8945 5.6836 5.6836 5.6836h6.6289c3.7891 0 5.6836-1.8945 5.6836-5.6836v-16.574h11.84c13.734 0 23.207-10.418 23.207-24.625 0-14.211-9.4727-24.629-23.207-24.629zm-3.3125 34.098h-8.5234v-19.418h8.9961c5.6836 0 8.5234 3.7891 8.5234 9.4727 0 5.6836-2.8398 9.9453-8.9961 9.9453z"/>
  <path d="m393.52 427.62h-6.6289c-3.7891 0-5.6836 1.8945-5.6836 5.6836v27.941c0 4.2617 0.94531 12.312 0.94531 12.312s-3.3164-7.5781-6.1562-12.312l-17.523-29.363c-1.4219-2.3672-3.3164-3.7891-6.6289-3.7891h-7.5781c-3.7891 0-5.6836 1.8945-5.6836 5.6836v60.145c0 3.7891 1.8945 5.6836 5.6836 5.6836h6.6289c3.7891 0 5.6836-1.8945 5.6836-5.6836v-27.469c0-4.2617-0.94531-12.312-0.94531-12.312s3.3164 7.5781 6.1562 12.312l17.523 29.363c1.4219 2.3672 3.3164 3.7891 6.6289 3.7891h7.5781c3.7891 0 5.6836-1.8945 5.6836-5.6836v-60.617c0-3.7891-1.8945-5.6836-5.6836-5.6836z"/>
  <path d="m478.77 458.41h-14.68c-3.7891 0-5.6836 1.8945-5.6836 5.6836v3.7891c0 3.7891 1.8945 5.6836 5.6836 5.6836h4.7344v4.7344s-4.2617 5.6836-14.68 5.6836c-10.891 0-20.363-8.0508-20.363-21.312 0-10.891 6.1562-20.363 20.363-20.363 6.1562 0 9.9453 1.8945 13.262 3.3164s5.6836 1.4219 7.5781-1.4219l2.3672-4.2617c1.8945-3.3164 1.4219-5.2109-1.4219-7.5781-2.8398-1.8945-11.84-6.1562-23.207-6.1562-21.785 0-37.414 15.629-37.414 37.414 0 22.258 16.574 36.465 35.047 36.465 12.785 0 18.941-6.6289 18.941-6.6289v0.94531c0 2.3672 1.8945 4.2617 5.6836 4.2617h3.3164c3.7891 0 5.6836-1.8945 5.6836-5.6836v-29.363c0.47266-3.3164-1.4219-5.207-5.2109-5.207z"/>
 </g>
</svg>
